<mxfile host="app.diagrams.net" modified="2022-02-10T08:09:11.629Z" agent="5.0 (Windows NT 10.0; Win64; x64) AppleWebKit/537.36 (KHTML, like Gecko) Chrome/98.0.4758.82 Safari/537.36" etag="t-j2wqIB6fEm_zacfRX3" version="16.4.7" type="github">
  <diagram id="chNzZVGyo9SPdtNRLmo0" name="Page-1">
    <mxGraphModel dx="2522" dy="1612" grid="1" gridSize="10" guides="1" tooltips="1" connect="1" arrows="1" fold="1" page="1" pageScale="1" pageWidth="1100" pageHeight="850" math="0" shadow="0">
      <root>
        <mxCell id="0" />
        <mxCell id="1" parent="0" />
        <mxCell id="LTDoggf5loneXw2vPlQn-1" value="" style="rounded=0;whiteSpace=wrap;html=1;strokeWidth=3;fillColor=none;dashed=1;" vertex="1" parent="1">
          <mxGeometry x="-940" y="-30" width="470" height="500" as="geometry" />
        </mxCell>
        <mxCell id="gvp6AJLyiE2rmEpr4Blh-2" value="&lt;b style=&quot;font-size: 18px&quot;&gt;动态配置&lt;/b&gt;" style="rounded=0;whiteSpace=wrap;html=1;strokeWidth=5;fillColor=#67AB9F;" parent="1" vertex="1">
          <mxGeometry x="-897" y="97" width="150" height="40" as="geometry" />
        </mxCell>
        <mxCell id="LTDoggf5loneXw2vPlQn-3" value="&lt;b style=&quot;font-size: 18px&quot;&gt;DB脚本&lt;/b&gt;" style="rounded=0;whiteSpace=wrap;html=1;strokeWidth=5;fillColor=#67AB9F;" vertex="1" parent="1">
          <mxGeometry x="-897" y="187" width="150" height="40" as="geometry" />
        </mxCell>
        <mxCell id="LTDoggf5loneXw2vPlQn-4" value="&lt;b style=&quot;font-size: 18px&quot;&gt;接口依赖&lt;/b&gt;" style="rounded=0;whiteSpace=wrap;html=1;strokeWidth=5;fillColor=#67AB9F;" vertex="1" parent="1">
          <mxGeometry x="-897" y="277" width="150" height="40" as="geometry" />
        </mxCell>
        <mxCell id="LTDoggf5loneXw2vPlQn-5" value="&lt;b style=&quot;font-size: 18px&quot;&gt;其他依赖&lt;/b&gt;" style="rounded=0;whiteSpace=wrap;html=1;strokeWidth=5;fillColor=#67AB9F;" vertex="1" parent="1">
          <mxGeometry x="-897" y="367" width="150" height="40" as="geometry" />
        </mxCell>
        <mxCell id="LTDoggf5loneXw2vPlQn-6" value="&lt;font style=&quot;font-size: 18px&quot;&gt;发布计划版本书V20220210&lt;/font&gt;" style="text;html=1;strokeColor=none;fillColor=none;align=center;verticalAlign=middle;whiteSpace=wrap;rounded=0;" vertex="1" parent="1">
          <mxGeometry x="-780" y="-10" width="140" height="30" as="geometry" />
        </mxCell>
        <mxCell id="LTDoggf5loneXw2vPlQn-7" value="&lt;b style=&quot;font-size: 18px&quot;&gt;{}&lt;/b&gt;" style="rounded=0;whiteSpace=wrap;html=1;strokeWidth=5;fillColor=#D5E8D4;" vertex="1" parent="1">
          <mxGeometry x="-650" y="97" width="150" height="40" as="geometry" />
        </mxCell>
        <mxCell id="LTDoggf5loneXw2vPlQn-8" value="&lt;b&gt;&lt;font style=&quot;font-size: 10px&quot;&gt;hash:&lt;/font&gt;&lt;/b&gt;&lt;span style=&quot;font-size: 10px&quot;&gt;&lt;b&gt;e360636eaa0cb83496154ec2e1deeb243bf1e9bc&lt;/b&gt;&lt;/span&gt;" style="rounded=0;whiteSpace=wrap;html=1;strokeWidth=5;fillColor=#67AB9F;" vertex="1" parent="1">
          <mxGeometry x="-897" y="430" width="407" height="25" as="geometry" />
        </mxCell>
        <mxCell id="LTDoggf5loneXw2vPlQn-9" value="&lt;span style=&quot;font-size: 18px;&quot;&gt;配置项&lt;/span&gt;" style="text;html=1;strokeColor=none;fillColor=none;align=center;verticalAlign=middle;whiteSpace=wrap;rounded=0;dashed=1;fontSize=18;" vertex="1" parent="1">
          <mxGeometry x="-852" y="60" width="60" height="30" as="geometry" />
        </mxCell>
        <mxCell id="LTDoggf5loneXw2vPlQn-10" value="&lt;span style=&quot;font-size: 18px&quot;&gt;默认值&lt;/span&gt;" style="text;html=1;strokeColor=none;fillColor=none;align=center;verticalAlign=middle;whiteSpace=wrap;rounded=0;dashed=1;fontSize=18;" vertex="1" parent="1">
          <mxGeometry x="-605" y="60" width="60" height="30" as="geometry" />
        </mxCell>
        <mxCell id="LTDoggf5loneXw2vPlQn-11" value="&lt;b style=&quot;font-size: 18px&quot;&gt;alter table xxx&lt;/b&gt;" style="rounded=0;whiteSpace=wrap;html=1;strokeWidth=5;fillColor=#D5E8D4;" vertex="1" parent="1">
          <mxGeometry x="-650" y="187" width="150" height="40" as="geometry" />
        </mxCell>
        <mxCell id="LTDoggf5loneXw2vPlQn-12" value="&lt;b style=&quot;font-size: 18px&quot;&gt;CPD callback&lt;/b&gt;" style="rounded=0;whiteSpace=wrap;html=1;strokeWidth=5;fillColor=#D5E8D4;" vertex="1" parent="1">
          <mxGeometry x="-650" y="277" width="150" height="40" as="geometry" />
        </mxCell>
        <mxCell id="LTDoggf5loneXw2vPlQn-13" value="&lt;b style=&quot;font-size: 18px&quot;&gt;无&lt;/b&gt;" style="rounded=0;whiteSpace=wrap;html=1;strokeWidth=5;fillColor=#D5E8D4;" vertex="1" parent="1">
          <mxGeometry x="-650" y="367" width="150" height="40" as="geometry" />
        </mxCell>
      </root>
    </mxGraphModel>
  </diagram>
</mxfile>
